<svg width="32" height="32" viewBox="0 0 32 32" fill="none" xmlns="http://www.w3.org/2000/svg">
<path d="M30.0838 23.3801V27.8801C30.0855 28.2979 30.0023 28.7114 29.8396 29.0942C29.6769 29.4769 29.4382 29.8205 29.1389 30.1029C28.8397 30.3854 28.4863 30.6004 28.1016 30.7342C27.7168 30.868 27.3092 30.9177 26.9047 30.8801C22.4171 30.3786 18.1065 28.8014 14.3192 26.2751C10.7957 23.9721 7.80827 20.8994 5.56924 17.2751C3.10463 13.362 1.57085 8.90664 1.09216 4.27015C1.05572 3.85535 1.10364 3.43729 1.23289 3.04258C1.36213 2.64788 1.56987 2.28518 1.84286 1.97758C2.11585 1.66997 2.44812 1.42421 2.81852 1.25593C3.18892 1.08765 3.58932 1.00054 3.99424 1.00015H8.36924C9.07698 0.992981 9.76311 1.25076 10.2997 1.72544C10.8364 2.20013 11.1869 2.85932 11.2859 3.58015C11.4706 5.02024 11.813 6.43424 12.3067 7.79514C12.503 8.33203 12.5454 8.91552 12.4291 9.47647C12.3128 10.0374 12.0426 10.5523 11.6505 10.9601L9.79841 12.8651C11.8744 16.6205 14.8974 19.7298 18.5484 21.8651L20.4005 19.9601C20.797 19.5568 21.2976 19.2789 21.843 19.1593C22.3883 19.0397 22.9556 19.0833 23.4776 19.2851C24.8007 19.793 26.1754 20.1452 27.5755 20.3351C28.2839 20.4379 28.9309 20.805 29.3934 21.3664C29.8558 21.9278 30.1016 22.6445 30.0838 23.3801Z" stroke="#101010" stroke-width="2" stroke-linecap="round" stroke-linejoin="round"/>
</svg>
